<?xml version="1.0" standalone="no"?>
<!DOCTYPE svg PUBLIC "-//W3C//DTD SVG 20010904//EN"
 "http://www.w3.org/TR/2001/REC-SVG-20010904/DTD/svg10.dtd">
<svg version="1.0" xmlns="http://www.w3.org/2000/svg"
 width="608.000000pt" height="608.000000pt" viewBox="0 0 608.000000 608.000000"
 preserveAspectRatio="xMidYMid meet">
<metadata>
Created by potrace 1.14, written by Peter Selinger 2001-2017
</metadata>
<g transform="translate(0.000000,608.000000) scale(0.100000,-0.100000)"
fill="#000000" stroke="none">
<path d="M3357 6024 c-1 -1 -60 -5 -132 -8 -71 -4 -150 -8 -175 -11 -155 -15
-228 -24 -251 -31 -9 -2 -34 -6 -55 -9 -48 -5 -172 -29 -280 -55 -45 -11 -90
-21 -100 -23 -11 -2 -26 -7 -34 -10 -8 -3 -55 -18 -105 -33 -97 -29 -276 -102
-286 -117 -3 -5 -10 -9 -15 -9 -11 0 -82 -36 -98 -49 -6 -5 -47 -35 -91 -66
-145 -103 -232 -178 -315 -269 -77 -85 -100 -113 -100 -123 0 -5 -4 -11 -8
-13 -6 -2 -47 -51 -115 -138 -7 -8 -23 -29 -37 -46 -14 -17 -34 -43 -45 -58
-11 -16 -25 -33 -31 -40 -5 -6 -43 -54 -84 -106 -40 -52 -76 -97 -79 -100 -3
-3 -20 -23 -36 -45 -32 -43 -54 -71 -71 -89 -52 -56 -194 -264 -194 -284 0 -5
-5 -12 -11 -14 -5 -2 -11 -10 -13 -18 -2 -8 -16 -44 -33 -80 -34 -74 -66 -164
-83 -230 -6 -25 -14 -52 -17 -60 -3 -8 -7 -22 -8 -30 -1 -8 -10 -56 -19 -106
-34 -193 -39 -475 -10 -649 10 -63 11 -67 25 -115 7 -25 13 -47 14 -50 16 -72
83 -203 146 -286 65 -87 114 -132 211 -197 43 -28 78 -57 78 -63 0 -18 -185
-304 -210 -324 -3 -3 -14 -16 -23 -30 -34 -50 -110 -120 -177 -164 -64 -42
-69 -49 -85 -102 -17 -60 -19 -182 -3 -244 24 -90 34 -121 70 -206 38 -95 54
-126 116 -229 95 -159 247 -328 387 -431 33 -24 71 -53 85 -64 14 -11 53 -34
88 -52 34 -18 62 -36 62 -40 0 -5 5 -8 12 -8 6 0 41 -14 77 -32 36 -17 69 -33
74 -34 4 -1 9 -3 12 -4 3 -1 8 -3 13 -4 4 -1 25 -10 47 -20 22 -9 48 -18 58
-19 9 -1 17 -4 17 -7 0 -4 6 -7 13 -8 15 -1 37 -7 57 -15 8 -3 44 -14 80 -23
66 -16 85 -20 130 -29 14 -2 50 -9 80 -15 30 -6 78 -13 105 -16 28 -3 61 -8
75 -10 144 -24 738 -24 880 1 14 2 50 6 80 9 30 3 66 8 80 10 14 2 48 7 75 10
80 10 117 16 165 26 25 5 73 14 107 20 106 19 114 20 278 61 88 21 169 41 179
44 15 3 124 39 186 61 3 1 16 5 29 9 42 14 199 93 257 130 62 40 128 103 214
204 30 35 64 74 75 86 11 13 34 40 50 61 17 21 46 56 65 79 19 23 46 56 60 74
14 18 30 38 35 44 6 7 47 59 92 117 44 58 114 136 154 174 41 38 102 95 136
128 169 159 302 401 374 681 25 100 28 111 34 162 2 22 7 51 9 64 25 115 25
451 1 561 -3 14 -7 39 -10 56 -6 50 -34 152 -65 239 -25 72 -48 123 -105 235
-28 55 -117 167 -205 260 -44 47 -80 92 -80 101 0 8 8 24 18 35 9 10 30 37 47
59 16 21 36 47 45 55 71 75 167 198 197 256 73 136 68 346 -12 543 -37 89
-102 218 -115 226 -6 3 -8 11 -5 16 4 5 2 9 -4 9 -5 0 -13 9 -16 20 -3 11 -12
26 -18 32 -7 7 -32 40 -57 73 -96 129 -296 303 -458 398 -128 74 -423 197
-535 222 -12 2 -53 12 -92 21 -101 22 -102 23 -195 38 -92 16 -169 26 -240 32
-112 9 -409 22 -413 18z"/>
</g>
</svg>
